<?xml version="1.0" encoding="UTF-8" standalone="no"?>
<svg
   xmlns:dc="http://purl.org/dc/elements/1.1/"
   xmlns:cc="http://creativecommons.org/ns#"
   xmlns:rdf="http://www.w3.org/1999/02/22-rdf-syntax-ns#"
   xmlns:svg="http://www.w3.org/2000/svg"
   xmlns="http://www.w3.org/2000/svg"
   viewBox="0 0 968.48749 1112.2125"
   height="1112.2125"
   width="968.48749"
   xml:space="preserve"
   version="1.1"
   id="svg2"><metadata
     id="metadata8"><rdf:RDF><cc:Work
         rdf:about=""><dc:format>image/svg+xml</dc:format><dc:type
           rdf:resource="http://purl.org/dc/dcmitype/StillImage" /><dc:title></dc:title></cc:Work></rdf:RDF></metadata><defs
     id="defs6" /><g
     transform="matrix(1.25,0,0,-1.25,0,1112.2125)"
     id="g10"><g
       transform="scale(0.1,0.1)"
       id="g12"><path
         id="path14"
         style="fill:#23396b;fill-opacity:1;fill-rule:evenodd;stroke:none"
         d="m 6883.7,1100.81 c 0,72.19 68.17,128.33 198.51,128.33 140.36,0 276.71,-60.15 276.71,-60.15 l 66.17,154.39 c -68.18,32.08 -206.53,78.2 -356.92,78.2 -238.61,0 -386.99,-118.3 -386.99,-304.78 0,-384.98 581.49,-264.679 581.49,-471.198 0,-70.18 -62.16,-128.332 -218.56,-128.332 -124.32,0 -244.63,44.109 -302.77,72.179 l -66.17,-156.398 c 56.14,-28.071 190.48,-90.231 376.96,-90.231 254.65,0 413.06,114.289 413.06,306.789 0,382.981 -581.49,266.68 -581.49,471.201 z M 6228,765.949 c 0,-130.328 -86.22,-234.597 -262.67,-234.597 -156.4,0 -228.59,86.23 -228.59,240.617 l 0,611.561 -216.55,0 0,-625.6 c 0,-276.7 136.35,-435.11 397.01,-435.11 170.44,0 270.69,60.149 334.86,170.442 l 28.07,-152.391 168.43,0 0,1042.659 -220.56,0 0,-617.581 z M 4778.28,513.309 c -190.49,0 -320.82,144.371 -320.82,346.89 0,212.541 142.36,350.891 320.82,350.891 172.44,0 312.8,-146.37 312.8,-350.891 0,-202.519 -138.35,-346.89 -312.8,-346.89 z m 36.09,888.271 c -124.32,0 -270.69,-46.12 -348.89,-172.44 l -28.07,154.39 -174.45,0 0,-1383.53 218.56,0 0,471.199 c 86.22,-130.328 228.59,-148.379 330.85,-148.379 316.81,0 501.28,254.649 501.28,537.379 0,306.781 -200.51,541.381 -499.28,541.381 z m -1225.16,0 c -126.33,0 -270.7,-92.24 -316.81,-200.51 -48.13,116.3 -172.44,200.51 -312.8,200.51 -108.28,0 -246.63,-66.17 -294.76,-178.46 l -36.09,160.41 -168.43,0 0,-1042.659 220.56,0 0,599.527 c 0,134.342 84.22,252.652 230.59,252.652 132.34,0 204.53,-90.23 204.53,-200.519 l 0,-651.66 216.55,0 0,599.527 c 0,136.352 82.21,252.652 230.59,252.652 140.36,0 204.52,-90.23 204.52,-210.542 l 0,-641.637 220.57,0 0,641.637 c 0,280.722 -138.36,419.072 -399.02,419.072 z M 1934.95,701.789 c 0,-120.309 -138.35,-206.527 -276.7,-206.527 -112.29,0 -208.54,52.136 -208.54,166.429 0,146.368 156.4,168.43 276.71,168.43 80.21,0 170.44,-10.031 208.53,-20.051 l 0,-108.281 z m 206.53,-126.32 0,483.231 c 0,230.59 -144.37,342.88 -397.01,342.88 -150.39,0 -318.82,-38.1 -403.03,-66.17 l 40.1,-154.39 c 98.25,24.06 242.62,42.1 326.84,42.1 120.3,0 226.57,-36.09 226.57,-198.5 l 0,-58.151 c -48.12,8.023 -166.42,16.039 -238.6,16.039 -244.63,0 -445.14,-86.219 -445.14,-324.828 0,-218.559 166.42,-334.86 372.95,-334.86 160.41,0 280.72,62.16 332.85,170.442 l 0,-18.051 c 0,-98.25 92.24,-134.34 172.44,-134.34 62.16,0 136.35,22.051 146.38,28.07 l 0,172.438 c -32.09,-4.008 -66.17,-6.008 -82.21,-6.008 -34.09,0 -52.14,8.02 -52.14,40.098 z M 844.152,1211.09 c 124.321,0 220.568,-48.12 230.588,-52.13 l 76.2,162.42 c -82.21,42.1 -188.483,80.2 -320.823,80.2 -320.82,0 -559.429,-244.62 -559.429,-537.369 0,-296.762 240.617,-541.391 543.39,-541.391 108.277,0 250.642,30.078 328.842,78.2 l -68.18,162.421 c -14.03,-6.019 -110.279,-50.132 -232.592,-50.132 -234.597,0 -348.89,192.492 -348.89,346.89 0,148.381 102.262,350.891 350.894,350.891 z M 6883.68,2585.38 c 14.03,210.54 180.46,376.96 393,376.96 224.58,0 348.9,-192.49 352.91,-376.96 l -745.91,0 z m 864.21,-34.09 c 0,264.68 -174.45,525.35 -477.22,525.35 -296.76,0 -511.31,-244.63 -511.31,-541.39 0,-304.78 220.56,-537.37 539.38,-537.37 150.38,0 288.74,52.13 366.94,90.23 l -42.11,100.25 c -102.26,-44.11 -214.55,-76.19 -324.83,-76.19 -230.59,0 -401.03,160.41 -413.06,378.97 l 856.19,0 c 0,0 6.02,20.05 6.02,60.15 z m -1449.73,318.82 -18.04,184.47 -96.25,0 0,-1038.66 120.31,0 0,605.55 c 0,222.57 156.4,318.82 330.85,318.82 l 0,118.3 c -152.39,0 -280.72,-56.14 -336.87,-188.48 z m -944.41,-765.96 c -132.34,0 -272.7,74.19 -272.7,224.57 0,170.44 182.47,214.55 342.88,214.55 122.31,0 256.65,-26.06 280.71,-32.08 l 0,-114.29 c 0,-152.39 -168.43,-292.75 -350.89,-292.75 z m 356.91,94.24 0,-72.18 c 0,-78.2 74.19,-110.29 136.35,-110.29 38.1,0 98.25,12.03 108.28,18.05 l 0,102.26 c -12.03,-2 -50.13,-6.01 -72.19,-6.01 -34.09,0 -58.15,10.02 -58.15,46.11 l 0,565.45 c 0,236.6 -128.33,334.86 -386.99,334.86 -134.34,0 -270.69,-26.07 -374.96,-60.16 l 26.07,-94.24 c 90.23,28.07 232.6,46.12 330.85,46.12 166.42,0 284.72,-52.13 284.72,-240.62 l 0,-108.27 c -32.08,6.01 -172.44,28.07 -292.74,28.07 -238.61,0 -449.15,-86.22 -449.15,-322.83 0,-216.55 178.45,-326.83 372.95,-326.83 168.43,0 316.81,84.21 374.96,200.51 z m -1209.13,-182.47 346.89,1042.67 -128.33,0 -280.72,-886.27 -6.01,0 -262.67,886.27 -128.33,0 -262.67,-886.27 -6.02,0 -280.72,886.27 -128.33,0 346.89,-1042.67 130.33,0 264.68,874.24 264.68,-874.24 130.33,0 z m -1656.22,338.87 c 0,-216.55 64.16,-338.87 280.72,-338.87 56.14,0 126.32,14.04 172.44,32.09 l -18.05,88.22 c -48.12,-8.02 -96.24,-14.04 -138.35,-14.04 -130.34,0 -176.45,84.22 -176.45,226.59 l 0,609.55 278.71,0 0,100.26 -278.71,0 0,300.77 -98.25,0 -22.06,-300.77 -156.4,0.07 0,-0.07 -244.61,0 0,108.28 c 0,112.29 32.08,208.53 168.43,208.53 34.09,0 74.19,-6.01 110.28,-12.03 l 12.03,104.27 c -40.1,10.02 -88.22,16.04 -130.33,16.04 -212.55,0 -280.72,-116.3 -280.72,-312.8 l 0,-112.29 -140.36,-20.05 0,-80.21 140.36,0 0,-942.41 120.31,0 0,942.41 401.01,0 0,-603.54 z m -1361.49,607.55 c 228.58,0 415.06,-188.48 415.06,-427.09 0,-234.6 -186.48,-423.08 -415.06,-423.08 -230.59,0 -415.06,188.48 -415.06,423.08 0,238.61 184.47,427.09 415.06,427.09 z m 0,-964.46 c 294.75,0 535.37,236.6 535.37,537.37 0,304.78 -238.61,541.39 -535.37,541.39 -294.76,0 -535.371,-236.61 -535.371,-541.39 0,-300.77 240.611,-537.37 535.371,-537.37 z M 366.938,2104.15 c -152.387,0 -288.7388,56.14 -326.8364,76.19 L 0,2084.1 c 44.1133,-22.06 186.477,-86.22 368.945,-86.22 238.61,0 384.985,110.28 384.985,288.74 0,376.96 -629.61,236.6 -629.61,507.29 0,114.3 104.266,176.45 254.649,176.45 150.386,0 288.742,-58.14 288.742,-58.14 l 40.102,94.24 c -58.153,26.06 -190.489,70.18 -334.86,70.18 -230.59,0 -364.93347,-114.3 -364.93347,-284.73 0,-378.97 629.61347,-232.6 629.61347,-507.3 0,-108.28 -92.238,-180.46 -270.695,-180.46" /><path
         id="path16"
         style="fill:#59a133;fill-opacity:1;fill-rule:evenodd;stroke:none"
         d="m 4529.9,8738.11 c 42.79,0 77.48,-34.7 77.48,-77.5 0,-42.79 -34.69,-77.48 -77.48,-77.48 -42.8,0 -77.49,34.69 -77.49,77.48 0,42.8 34.69,77.5 77.49,77.5 z m 227.52,-343.06 c 0,35.99 29.18,65.16 65.17,65.16 36,0 65.17,-29.17 65.17,-65.16 0,-36 -29.17,-65.17 -65.17,-65.17 -35.99,0 -65.17,29.17 -65.17,65.17 z m 303.49,-214.92 c 35.99,0 65.17,-29.17 65.17,-65.17 0,-35.99 -29.18,-65.17 -65.17,-65.17 -35.99,0 -65.18,29.18 -65.18,65.17 0,36 29.19,65.17 65.18,65.17 z M 4300.13,6815.31 c 0,36 29.18,65.18 65.17,65.18 35.99,0 65.17,-29.18 65.17,-65.18 0,-35.99 -29.18,-65.16 -65.17,-65.16 -35.99,0 -65.17,29.17 -65.17,65.16 z m 3.98,872.95 c 0,36 29.18,65.18 65.17,65.18 36,0 65.18,-29.18 65.18,-65.18 0,-35.99 -29.18,-65.17 -65.18,-65.17 -35.99,0 -65.17,29.18 -65.17,65.17 z m 304.78,-231.76 c 0,59.9 48.56,108.46 108.47,108.46 59.9,0 108.47,-48.56 108.47,-108.46 0,-59.91 -48.57,-108.48 -108.47,-108.48 -59.91,0 -108.47,48.57 -108.47,108.48 z m 393.02,291.46 c 0,35.99 29.18,65.17 65.18,65.17 35.99,0 65.17,-29.18 65.17,-65.17 0,-36 -29.18,-65.18 -65.17,-65.18 -36,0 -65.18,29.18 -65.18,65.18 z m 420.8,32.08 c 35.99,0 65.17,-29.18 65.17,-65.17 0,-35.99 -29.18,-65.17 -65.17,-65.17 -36,0 -65.17,29.18 -65.17,65.17 0,35.99 29.17,65.17 65.17,65.17 z m -457.43,-736.08 c 0,36 29.18,65.17 65.17,65.17 35.99,0 65.17,-29.17 65.17,-65.17 0,-35.99 -29.18,-65.17 -65.17,-65.17 -35.99,0 -65.17,29.18 -65.17,65.17 z m 553.04,183.18 c 36,0 65.18,-29.18 65.18,-65.18 0,-35.99 -29.18,-65.17 -65.18,-65.17 -35.99,0 -65.17,29.18 -65.17,65.17 0,36 29.18,65.18 65.17,65.18 z m -129.26,-441.08 c 25.45,25.45 66.72,25.45 92.17,0 25.45,-25.45 25.45,-66.72 0,-92.17 -25.45,-25.45 -66.72,-25.45 -92.17,0 -25.45,25.46 -25.45,66.72 0,92.17 z m -478.88,-485.62 c 25.45,25.45 66.72,25.46 92.17,0.01 25.45,-25.46 25.45,-66.72 0,-92.17 -25.45,-25.46 -66.72,-25.46 -92.17,0 -25.45,25.45 -25.45,66.71 0,92.16 z M 4483.09,6042.3 c 36,0 65.17,-29.18 65.17,-65.17 0,-35.99 -29.17,-65.17 -65.17,-65.17 -35.99,0 -65.17,29.18 -65.17,65.17 0,35.99 29.18,65.17 65.17,65.17 z m 16.7,2463.13 0,-279.29 -444.64,-454.16 0,-3192.2 c 29.31,14.11 54.77,29.57 75.05,43.36 l 0,964.94 2.89,-2.9 282.89,277.25 c 19.72,-11.56 42.6,-18.31 67.11,-18.31 73.46,0 133.01,59.55 133.01,133.01 0,73.46 -59.55,133 -133.01,133 -73.46,0 -133,-59.54 -133,-133 0,-27.06 8.13,-52.2 22,-73.2 l -241.89,-238.67 0,216.53 341.8,341.8 54.44,0.16 301.27,-3.04 c 5.77,-22.12 17.18,-43.07 34.51,-60.4 51.94,-51.94 136.15,-51.94 188.09,0 51.95,51.94 51.95,136.15 0,188.1 -51.94,51.94 -136.15,51.94 -188.09,0 -19.14,-19.14 -31.16,-42.66 -36.2,-67.32 l -142.22,0.95 151.11,151.1 335.34,0.09 191.89,195.55 c 51.61,-33.96 121.66,-28.25 167.06,17.15 51.94,51.94 51.94,136.15 0,188.1 -51.95,51.94 -136.16,51.94 -188.1,0 -43.08,-43.08 -50.31,-108.31 -21.93,-158.97 l -176.57,-180.21 -250.59,-1.12 555.55,555.76 c 20.51,-12.93 44.72,-20.53 70.76,-20.53 73.46,0 133.01,59.55 133.01,133 0,73.46 -59.55,133.01 -133.01,133.01 -73.46,0 -133,-59.55 -133,-133.01 0,-25.61 7.36,-49.45 19.91,-69.75 l -597.1,-598.86 -2.29,-0.01 -210.54,-210.54 -22.69,-0.01 -41.14,0.27 215.69,215.69 -2.54,2.54 0,81.33 312.6,276.37 0,54.66 c 60.62,12.39 106.24,66.02 106.24,130.31 0,73.46 -59.55,133.01 -133.01,133.01 -73.46,0 -133.01,-59.55 -133.01,-133.01 0,-60.84 40.89,-112.01 96.66,-127.84 l 0,-37.12 -249.48,-213.04 0,30.5 1.27,0 113.73,114.36 0,295.74 212.01,217.45 1.07,-1.09 279.24,279.47 c 20.51,-12.93 44.73,-20.53 70.77,-20.53 73.46,0 133,59.55 133,133.01 0,73.46 -59.54,133 -133,133 -73.46,0 -133.01,-59.54 -133.01,-133 0,-25.63 7.38,-49.49 19.94,-69.8 l -215.9,-217.24 0,189.8 c 60.68,12.34 106.35,66 106.35,130.33 0,73.45 -59.55,133 -133,133 -73.46,0 -133.01,-59.55 -133.01,-133 0,-60.79 40.83,-111.95 96.54,-127.82 l 0,-249.44 -234.13,-242.13 0,-297.75 -52.56,-52.65 0,458.6 c 109.72,13.13 194.79,106.47 194.79,219.73 0,122.25 -99.11,221.36 -221.36,221.36 -122.26,0 -221.37,-99.11 -221.37,-221.36 0,-103.71 71.33,-190.73 167.59,-214.76 l 0,-544.05 -1.23,-1.23 1.23,0 0,-132.75 -27.86,-27.95 0,426.06 -234.12,242.12 0,355.44 c 57.81,14.45 100.69,66.59 100.69,128.88 0,73.46 -59.55,133.01 -133.01,133.01 -73.45,0 -133,-59.55 -133,-133.01 0,-62.83 43.62,-115.35 102.2,-129.27 l 0,-379.06 234.12,-240.13 0,-467.37 -442.4,-443.86 0,349.46 261.87,231.53 0,75.45 c 60.63,12.39 106.24,66.02 106.24,130.3 0,73.47 -59.55,133.01 -133.01,133.01 -73.46,0 -133,-59.54 -133,-133.01 0,-60.83 40.88,-112.01 96.65,-127.84 l 0,-57.9 -198.75,-169.72 0,1285.96 180.16,183.05 625.73,0.27 58.67,68.2 c 18.52,-9.78 39.59,-15.37 61.99,-15.37 73.46,0 133.01,59.54 133.01,133 0,73.46 -59.55,133.01 -133.01,133.01 -73.46,0 -133,-59.55 -133,-133.01 0,-28.17 8.81,-54.26 23.76,-75.76 l -46.23,-53.74 -279.94,-0.21 232.18,195.73 0,84.82 c 58.51,13.97 102.08,66.45 102.08,129.25 0,73.45 -59.55,133 -133.01,133 -73.46,0 -133,-59.55 -133,-133 0,-62.34 42.93,-114.5 100.8,-128.92 l 0,-65.14 -252.7,-215.81 -172.03,-0.13 209.18,212.54 0,311.47 c 65.43,19.37 113.19,79.85 113.19,151.55 0,87.34 -70.8,158.14 -158.13,158.14 -87.34,0 -158.14,-70.8 -158.14,-158.14 0,-77.02 55.11,-141.12 128.03,-155.18 z m -1213.08,58.53 c 42.8,0 77.49,-34.69 77.49,-77.49 0,-42.79 -34.69,-77.48 -77.49,-77.48 -42.79,0 -77.48,34.69 -77.48,77.48 0,42.8 34.69,77.49 77.48,77.49 z m 566.06,-58.44 c -71.22,0 -128.96,57.75 -128.96,128.97 0,71.22 57.74,128.96 128.96,128.96 71.23,0 128.97,-57.74 128.97,-128.96 0,-71.22 -57.74,-128.97 -128.97,-128.97 z m 370.52,-174.02 c 35.99,0 65.17,-29.18 65.17,-65.17 0,-35.99 -29.18,-65.17 -65.17,-65.17 -35.99,0 -65.17,29.18 -65.17,65.17 0,35.99 29.18,65.17 65.17,65.17 z M 3741.72,6363.53 c -35.99,0 -65.17,29.18 -65.17,65.17 0,35.99 29.18,65.17 65.17,65.17 36,0 65.18,-29.18 65.18,-65.17 0,-35.99 -29.18,-65.17 -65.18,-65.17 z m -16.62,590.32 c -36,0 -65.18,29.17 -65.18,65.17 0,35.99 29.18,65.17 65.18,65.17 35.99,0 65.17,-29.18 65.17,-65.17 0,-36 -29.18,-65.17 -65.17,-65.17 z m -438.39,1374.49 c 28.54,0 55.25,7.67 78.36,20.9 l 315.8,-322.03 0,-634.48 218.35,-219.11 1.51,0 0,-288.39 -63.16,63.02 c 12.93,20.51 20.53,44.73 20.53,70.77 0,73.46 -59.55,133 -133,133 -73.46,0 -133.01,-59.54 -133.01,-133 0,-73.46 59.55,-133.01 133.01,-133.01 25.68,0 49.57,7.4 69.9,20.01 l 103.85,-102.3 1.88,1.88 0,-494.09 -46.53,46.42 c 12.93,20.51 20.53,44.73 20.53,70.77 0,73.46 -59.55,133 -133.01,133 -73.45,0 -133,-59.54 -133,-133 0,-73.46 59.55,-133.01 133,-133.01 25.68,0 49.58,7.41 69.91,20.01 l 89.1,-87.77 0,-1692.05 c 46.18,3.68 89.42,16.1 127.53,31.88 l 0,2821.59 -114.32,113.91 0,414.2 238.58,236.4 c 20.51,-12.94 44.73,-20.54 70.77,-20.54 73.46,0 133,59.55 133,133.01 0,73.46 -59.54,133.01 -133,133.01 -73.46,0 -133,-59.55 -133,-133.01 0,-25.58 7.34,-49.4 19.86,-69.68 l -196.21,-195.61 0,377.48 c 115.85,27.59 202.02,131.68 202.02,255.97 0,145.36 -117.83,263.19 -263.19,263.19 -145.35,0 -263.19,-117.83 -263.19,-263.19 0,-123.37 84.91,-226.87 199.46,-255.37 l 0,-942.68 111.69,-111.2 0,-53.69 -144.81,144.97 0,636.86 -337.22,346.09 c 16.49,24.97 26.15,54.85 26.15,87 0,87.34 -70.8,158.14 -158.14,158.14 -87.33,0 -158.13,-70.8 -158.13,-158.14 0,-87.33 70.8,-158.13 158.13,-158.13 z m 161.2,-1587.86 c 0,36 29.17,65.18 65.17,65.18 35.99,0 65.17,-29.18 65.17,-65.18 0,-35.99 -29.18,-65.16 -65.17,-65.16 -36,0 -65.17,29.17 -65.17,65.16 z m 326.77,-738.2 0.36,-1454.09 c 20.21,-5.43 41.32,-9.52 63.13,-11.69 l 0,1486.17 -295.22,302.04 0,286.26 c 59.05,13.58 103.13,66.35 103.13,129.51 0,73.47 -59.54,133.01 -133,133.01 -73.46,0 -133.01,-59.54 -133.01,-133.01 0,-61.95 42.42,-113.85 99.76,-128.64 l 0,-311.3 294.85,-298.26 z M 5847.13,4458.01 c -390.34,-159.91 -1139.7,-268.14 -2000.28,-268.14 -860.87,0 -1610.46,108.31 -2000.69,268.31 l -96.6,-96.41 c 352.64,-184.06 1158.9,-312.74 2097.29,-312.74 937.84,0 1743.69,128.52 2096.66,312.41 l -96.38,96.57 z M 2065.38,7074.47 c 25.46,25.45 66.72,25.45 92.17,0 25.45,-25.46 25.45,-66.72 0,-92.17 -25.45,-25.45 -66.71,-25.46 -92.17,0 -25.45,25.45 -25.45,66.71 0,92.17 z m 1205.7,737.87 c -59.9,0 -108.47,48.56 -108.47,108.47 0,59.9 48.57,108.46 108.47,108.46 59.91,0 108.47,-48.56 108.47,-108.46 0,-59.91 -48.56,-108.47 -108.47,-108.47 z m -672.9,-778.42 c -42.36,-42.36 -111.04,-42.36 -153.4,0 -42.36,42.36 -42.36,111.04 0,153.4 42.36,42.36 111.04,42.36 153.4,0 42.36,-42.36 42.36,-111.04 0,-153.4 z m 7.64,481.07 c -25.45,-25.45 -66.71,-25.45 -92.17,0 -25.45,25.45 -25.45,66.72 0,92.17 25.46,25.45 66.72,25.45 92.17,0 25.46,-25.46 25.45,-66.72 0,-92.17 z m 150.65,286.93 c -35.99,0 -65.17,29.17 -65.17,65.16 0,36 29.18,65.17 65.17,65.17 35.99,0 65.17,-29.17 65.17,-65.17 0,-35.99 -29.18,-65.16 -65.17,-65.16 z m 687.28,-350.56 c 0,36 29.18,65.18 65.17,65.18 36,0 65.17,-29.18 65.17,-65.18 0,-35.99 -29.17,-65.17 -65.17,-65.17 -35.99,0 -65.17,29.18 -65.17,65.17 z m -30,-1676.59 c -36,0 -65.18,29.18 -65.18,65.17 0,36 29.18,65.18 65.18,65.18 35.99,0 65.17,-29.18 65.17,-65.18 0,-35.99 -29.18,-65.17 -65.17,-65.17 z m -574.16,325.46 c -25.45,-25.45 -66.71,-25.46 -92.16,-0.01 -25.46,25.46 -25.45,66.72 0,92.17 25.45,25.46 66.71,25.46 92.17,0 25.45,-25.45 25.44,-66.71 -0.01,-92.16 z m -407.4,324.26 c -25.45,-25.45 -66.72,-25.45 -92.17,0 -25.45,25.45 -25.45,66.71 0,92.16 25.45,25.45 66.72,25.46 92.17,0 25.45,-25.45 25.45,-66.71 0,-92.16 z m -251.1,490.69 268.04,-268.03 331.18,-0.09 146.86,-146.85 -411.49,-0.14 c -5.36,23.65 -17.11,46.14 -35.52,64.55 -51.95,51.94 -136.16,51.94 -188.1,0 -51.94,-51.94 -51.95,-136.16 0,-188.1 51.94,-51.94 136.15,-51.94 188.09,0 18.03,18.03 29.65,39.97 35.17,63.08 l 474.99,-2.54 217.46,-217.45 3.81,-0.01 0,-3.58 126.38,0.14 40.22,-40.22 -455.1,-0.13 c -5.36,23.64 -17.11,46.14 -35.52,64.55 -51.94,51.94 -136.16,51.94 -188.1,0 -51.94,-51.94 -51.94,-136.16 0,-188.1 51.94,-51.94 136.16,-51.94 188.1,0 18.12,18.13 29.77,40.21 35.25,63.45 l 514.47,1.13 182.44,-182.44 0,-260.65 -94.93,93.07 c 13.85,20.99 21.96,46.1 21.96,73.12 0,73.46 -59.55,133.01 -133,133.01 -73.46,0 -133.01,-59.55 -133.01,-133.01 0,-73.46 59.55,-133 133.01,-133 24.51,0 47.39,6.74 67.1,18.3 l 138.87,-134.67 0,-970.06 c 27.28,-18.25 63.12,-39.02 104.84,-55.57 l 0.21,1402.87 -0.35,0 0.04,8.44 -402.32,404.17 0.08,507.12 217.62,183.47 0,251.11 c 58.52,13.96 102.09,66.45 102.09,129.24 0,73.46 -59.55,133.01 -133.01,133.01 -73.46,0 -133,-59.55 -133,-133.01 0,-62.33 42.94,-114.49 100.8,-128.91 l 0,-231.43 -154.49,-131.93 0.12,746.38 c 97.52,23.14 170.1,110.74 170.1,215.34 0,122.26 -99.11,221.36 -221.37,221.36 -122.26,0 -221.37,-99.1 -221.37,-221.36 0,-103.71 71.33,-190.73 167.59,-214.76 l 0,-1027.1 -27.86,27.8 0,719.38 -339.07,346.77 c 24.15,24.08 39.11,57.38 39.11,94.18 0,73.46 -59.55,133.01 -133.01,133.01 -73.46,0 -133,-59.55 -133,-133.01 0,-73.45 59.54,-133 133,-133 13.77,0 27.04,2.09 39.53,5.97 l 330.32,-335.93 0,-718.96 0.11,0 -0.37,-0.14 91.24,-89.88 0,-141.79 -139.12,139.12 0.9,0.9 -0.45,161.28 -209.12,209.12 -4.25,335.35 -192.33,192.33 c 31.58,51.26 25.28,119.24 -19.14,163.67 -51.94,51.94 -136.16,51.94 -188.1,0 -51.94,-51.94 -51.94,-136.16 0,-188.1 44.04,-44.04 111.23,-50.59 162.34,-19.93 l 175.62,-175.63 5.66,-336.76 210.54,-210.54 0.03,-39.43 -310.01,310.01 c 52.56,85.31 42.08,198.46 -31.86,272.41 -86.45,86.45 -226.61,86.45 -313.06,0 -86.45,-86.45 -86.45,-226.61 0,-313.06 73.31,-73.31 185.13,-84.2 270.18,-33.18 l 384.87,-384.87 0,-1.75 0.88,0.88 196.42,-196.43 0,-4.35 1.7,0.73 59.57,-59.57 -37.2,-0.28 -431.99,431.99 -332.6,1.5 -251.33,251.33 c 30.66,51.1 24.11,118.29 -19.93,162.34 -51.95,51.94 -136.16,51.94 -188.1,0 -51.95,-51.94 -51.95,-136.16 0,-188.1 44.43,-44.43 112.41,-50.72 163.67,-19.15" /></g></g></svg>