<?xml version="1.0" encoding="UTF-8" standalone="no"?>
<!-- Created with Inkscape (http://www.inkscape.org/) -->

<svg
   xmlns:dc="http://purl.org/dc/elements/1.1/"
   xmlns:cc="http://creativecommons.org/ns#"
   xmlns:rdf="http://www.w3.org/1999/02/22-rdf-syntax-ns#"
   xmlns:svg="http://www.w3.org/2000/svg"
   xmlns="http://www.w3.org/2000/svg"
   xmlns:sodipodi="http://sodipodi.sourceforge.net/DTD/sodipodi-0.dtd"
   xmlns:inkscape="http://www.inkscape.org/namespaces/inkscape"
   id="svg2"
   version="1.1"
   inkscape:version="0.91 r13725"
   xml:space="preserve"
   width="673.3125"
   height="61.525002"
   viewBox="0 0 673.3125 61.525002"
   sodipodi:docname="tlabs-logo.svg"><metadata
     id="metadata8"><rdf:RDF><cc:Work
         rdf:about=""><dc:format>image/svg+xml</dc:format><dc:type
           rdf:resource="http://purl.org/dc/dcmitype/StillImage" /><dc:title></dc:title></cc:Work></rdf:RDF></metadata><defs
     id="defs6" /><sodipodi:namedview
     pagecolor="#ffffff"
     bordercolor="#666666"
     borderopacity="1"
     objecttolerance="10"
     gridtolerance="10"
     guidetolerance="10"
     inkscape:pageopacity="0"
     inkscape:pageshadow="2"
     inkscape:window-width="735"
     inkscape:window-height="480"
     id="namedview4"
     showgrid="false"
     inkscape:zoom="0.5109069"
     inkscape:cx="336.65625"
     inkscape:cy="30.762501"
     inkscape:window-x="913"
     inkscape:window-y="325"
     inkscape:window-maximized="0"
     inkscape:current-layer="g10" /><g
     id="g10"
     inkscape:groupmode="layer"
     inkscape:label="ink_ext_XXXXXX"
     transform="matrix(1.25,0,0,-1.25,0,61.525)"><g
       id="g12"
       transform="scale(0.1,0.1)"><path
         d="m 1703.61,125.313 0,177.773 -55.37,0 0,21.129 134.93,0 0,-21.129 -55.23,0 0,-177.773 -24.33,0"
         style="fill:#ec008c;fill-opacity:1;fill-rule:nonzero;stroke:none"
         id="path14"
         inkscape:connector-curvature="0" /><path
         d="m 1872.5,206.039 c -0.68,9.813 -2.48,17.922 -5.4,24.336 -5.63,12.336 -14.81,18.508 -27.53,18.508 -12.05,0 -21.08,-5.594 -27.1,-16.758 -3.7,-6.898 -6.18,-15.598 -7.44,-26.086 l 67.47,0 z m 22.73,-17.922 -90.49,0 c 0.2,-9.23 1.51,-17.293 3.94,-24.191 5.83,-16.61 16.46,-24.918 31.91,-24.918 12.14,0 20.88,5.195 26.23,15.594 1.93,3.789 3.73,8.644 5.39,14.574 l 21.56,0 c -2.04,-11.172 -5.78,-20.403 -11.22,-27.688 -9.91,-13.601 -23.8,-20.398 -41.67,-20.398 -19.92,0 -34.98,7.574 -45.17,22.73 -9.04,13.407 -13.56,30.258 -13.56,50.559 0,21.082 5.2,38.473 15.6,52.168 10.29,13.504 24.14,20.254 41.52,20.254 14.38,0 26.33,-4.465 35.85,-13.403 10.3,-9.812 16.56,-24.382 18.8,-43.714 0.67,-5.735 1.11,-12.922 1.31,-21.567"
         style="fill:#ec008c;fill-opacity:1;fill-rule:nonzero;stroke:none"
         id="path16"
         inkscape:connector-curvature="0" /><path
         d="m 1929.17,125.313 22.2969,0 0,198.902 -22.2969,0 0,-198.902 z"
         style="fill:#ec008c;fill-opacity:1;fill-rule:nonzero;stroke:none"
         id="path18"
         inkscape:connector-curvature="0" /><path
         d="m 2075.77,206.039 c -0.68,9.813 -2.47,17.922 -5.39,24.336 -5.64,12.336 -14.82,18.508 -27.54,18.508 -12.04,0 -21.08,-5.594 -27.1,-16.758 -3.69,-6.898 -6.17,-15.598 -7.43,-26.086 l 67.46,0 z m 22.73,-17.922 -90.49,0 c 0.2,-9.23 1.51,-17.293 3.94,-24.191 5.83,-16.61 16.46,-24.918 31.91,-24.918 12.14,0 20.88,5.195 26.23,15.594 1.94,3.789 3.73,8.644 5.39,14.574 l 21.57,0 c -2.05,-11.172 -5.79,-20.403 -11.22,-27.688 -9.92,-13.601 -23.8,-20.398 -41.67,-20.398 -19.93,0 -34.99,7.574 -45.18,22.73 -9.03,13.407 -13.56,30.258 -13.56,50.559 0,21.082 5.2,38.473 15.6,52.168 10.29,13.504 24.14,20.254 41.52,20.254 14.38,0 26.33,-4.465 35.85,-13.403 10.3,-9.812 16.57,-24.382 18.8,-43.714 0.68,-5.735 1.12,-12.922 1.31,-21.567"
         style="fill:#ec008c;fill-opacity:1;fill-rule:nonzero;stroke:none"
         id="path20"
         inkscape:connector-curvature="0" /><path
         d="m 2131.87,125.313 0,198.902 22.3,0 0,-116.719 52.89,55.082 28.41,0 -49.98,-51 53.19,-86.265 -26.23,0 -42.99,69.8 -15.29,-15.597 0,-54.203 -22.3,0"
         style="fill:#ec008c;fill-opacity:1;fill-rule:nonzero;stroke:none"
         id="path22"
         inkscape:connector-curvature="0" /><path
         d="m 2307.9,248.883 c -10.49,0 -18.94,-4.473 -25.36,-13.41 -7.38,-10.395 -11.07,-24.188 -11.07,-41.379 0,-17.489 3.59,-31.328 10.78,-41.531 6.42,-9.036 15.25,-13.555 26.52,-13.555 10.1,0 18.12,3.84 24.05,11.515 8.05,10.489 12.09,24.965 12.09,43.422 0,17.582 -3.55,31.328 -10.64,41.235 -6.4,9.133 -15.2,13.703 -26.37,13.703 z m 1.31,17.918 c 17.68,0 31.91,-6.653 42.7,-19.961 10.39,-12.82 15.59,-30.41 15.59,-52.746 0,-24.778 -6.18,-43.766 -18.51,-56.981 -10,-10.687 -23.36,-16.023 -40.07,-16.023 -19.43,0 -34.34,6.894 -44.74,20.687 -10.2,13.598 -15.3,30.989 -15.3,52.168 0,20.403 4.57,37.063 13.7,49.981 10.88,15.25 26.42,22.875 46.63,22.875"
         style="fill:#ec008c;fill-opacity:1;fill-rule:nonzero;stroke:none"
         id="path24"
         inkscape:connector-curvature="0" /><path
         d="m 2400.86,125.313 0,137.265 20.83,0 0,-17.344 c 4.38,6.321 8.61,10.977 12.69,13.989 6.89,5.054 14.91,7.578 24.04,7.578 17.09,0 28.75,-7.578 34.97,-22.727 9.71,15.149 22.97,22.727 39.78,22.727 9.13,0 17.1,-2.426 23.9,-7.285 7.57,-5.536 12.24,-13.547 13.99,-24.043 0.67,-3.789 1.02,-8.887 1.02,-15.297 l 0,-94.863 -22.3,0 0,86.558 c 0,11.168 -0.67,18.844 -2.04,23.024 -3.11,9.324 -10,13.988 -20.68,13.988 -13.12,0 -22.06,-6.996 -26.82,-20.988 -1.75,-5.047 -2.62,-14.961 -2.62,-29.727 l 0,-72.855 -22.29,0 0,88.304 c 0,13.113 -1.47,22.051 -4.38,26.813 -3.59,5.629 -9.18,8.453 -16.76,8.453 -7.87,0 -14.57,-2.969 -20.1,-8.891 -5.54,-5.734 -8.89,-13.601 -10.06,-23.605 -0.58,-4.762 -0.87,-10.883 -0.87,-18.364 l 0,-72.71 -22.3,0"
         style="fill:#ec008c;fill-opacity:1;fill-rule:nonzero;stroke:none"
         id="path26"
         inkscape:connector-curvature="0" /><path
         d="m 2670.61,125.313 42.6992,0 0,198.902 -42.6992,0 0,-198.902 z"
         style="fill:#ec008c;fill-opacity:1;fill-rule:nonzero;stroke:none"
         id="path28"
         inkscape:connector-curvature="0" /><path
         d="m 2742.01,125.313 0,137.265 39.49,0 0,-12.68 c 8.93,11.27 20.88,16.903 35.84,16.903 17.29,0 29.87,-6.117 37.74,-18.36 4.86,-7.578 7.29,-19.425 7.29,-35.554 l 0,-87.574 -40.95,0 0,81.164 c 0,9.519 -0.93,16.222 -2.76,20.109 -2.83,6.121 -7.49,9.18 -14,9.18 -8.64,0 -14.91,-4.907 -18.8,-14.715 -1.94,-5.055 -2.91,-14.43 -2.91,-28.125 l 0,-67.613 -40.94,0"
         style="fill:#ec008c;fill-opacity:1;fill-rule:nonzero;stroke:none"
         id="path30"
         inkscape:connector-curvature="0" /><path
         d="m 2888.01,125.313 0,137.265 39.49,0 0,-12.68 c 8.94,11.27 20.88,16.903 35.84,16.903 17.3,0 29.88,-6.117 37.75,-18.36 4.85,-7.578 7.28,-19.425 7.28,-35.554 l 0,-87.574 -40.94,0 0,81.164 c 0,9.519 -0.93,16.222 -2.77,20.109 -2.82,6.121 -7.49,9.18 -13.99,9.18 -8.64,0 -14.91,-4.907 -18.8,-14.715 -1.94,-5.055 -2.91,-14.43 -2.91,-28.125 l 0,-67.613 -40.95,0"
         style="fill:#ec008c;fill-opacity:1;fill-rule:nonzero;stroke:none"
         id="path32"
         inkscape:connector-curvature="0" /><path
         d="m 3092.74,238.098 c -7.58,0 -13.55,-4.133 -17.92,-12.383 -4.28,-8.067 -6.42,-18.606 -6.42,-31.621 0,-13.606 2.14,-24.336 6.42,-32.203 4.37,-8.067 10.54,-12.094 18.51,-12.094 7.57,0 13.45,3.683 17.62,11.074 4.67,8.156 7,19.184 7,33.074 0,13.305 -2.09,23.801 -6.27,31.477 -4.47,8.449 -10.78,12.676 -18.94,12.676 z m 1.75,28.703 c 18.65,0 34,-6.457 46.04,-19.379 12.25,-13.113 18.36,-30.895 18.36,-53.328 0,-23.223 -6.5,-41.485 -19.52,-54.793 -11.86,-12.141 -27.2,-18.211 -46.04,-18.211 -20.01,0 -36.05,6.797 -48.09,20.398 -11.86,13.211 -17.78,30.645 -17.78,52.313 0,21.273 5.73,38.515 17.19,51.726 12.25,14.184 28.86,21.274 49.84,21.274"
         style="fill:#ec008c;fill-opacity:1;fill-rule:nonzero;stroke:none"
         id="path34"
         inkscape:connector-curvature="0" /><path
         d="m 3246.92,125.313 -44.88,0 -41.54,137.265 42.55,0 21.86,-87.43 21.86,87.43 40.95,0 -40.8,-137.265"
         style="fill:#ec008c;fill-opacity:1;fill-rule:nonzero;stroke:none"
         id="path36"
         inkscape:connector-curvature="0" /><path
         d="m 3370.91,187.824 c -9.52,-0.386 -16.95,-1.308 -22.29,-2.769 -11.85,-3.106 -17.78,-10.004 -17.78,-20.688 0,-4.762 1.31,-8.551 3.94,-11.371 2.33,-2.523 5.68,-3.785 10.05,-3.785 9.04,0 16.08,4.269 21.13,12.82 3.3,5.442 4.95,11.614 4.95,18.508 l 0,7.285 z m 50.13,-34.828 0,-25.933 c -5.15,-2.333 -10.63,-3.497 -16.46,-3.497 -11.76,0 -20.7,4.954 -26.81,14.864 -4.57,-4.762 -8.7,-8.215 -12.39,-10.348 -7.96,-4.664 -17.78,-6.992 -29.44,-6.992 -13.31,0 -23.89,3.109 -31.77,9.32 -9.52,7.481 -14.27,17.778 -14.27,30.895 0,14.375 5.39,25.742 16.17,34.097 7.97,6.215 19.53,10.149 34.69,11.805 6.6,0.68 16.66,1.211 30.15,1.602 l 0,10.929 c 0,14.282 -6.06,21.418 -18.21,21.418 -11.37,0 -17.58,-6.945 -18.65,-20.84 l -39.05,0 c 0.78,14.481 5.83,25.7 15.15,33.664 10.01,8.551 24.24,12.821 42.7,12.821 21.95,0 37.89,-5.242 47.79,-15.735 5.15,-5.343 8.31,-12.48 9.47,-21.421 0.39,-3.399 0.59,-10.25 0.59,-20.543 l 0,-45.903 c 0,-5.246 0.58,-8.5 1.75,-9.761 1.26,-1.364 2.66,-2.04 4.22,-2.04 0.97,0 2.43,0.532 4.37,1.598"
         style="fill:#ec008c;fill-opacity:1;fill-rule:nonzero;stroke:none"
         id="path38"
         inkscape:connector-curvature="0" /><path
         d="m 3423.67,236.93 0,25.648 19.38,0 0,8.887 27.54,36.723 13.4,0 0,-45.61 23.76,0 0,-25.648 -23.76,0 0,-64.985 c 0.19,-7.195 0.59,-11.855 1.17,-13.992 1.16,-4.277 4.9,-6.41 11.22,-6.41 2.91,0 6.21,0.68 9.9,2.035 l 0,-29.285 c -8.05,-1.75 -15.97,-2.621 -23.75,-2.621 -16.31,0 -27.44,4.418 -33.36,13.262 -3.21,4.754 -5.15,11.652 -5.84,20.687 -0.19,2.621 -0.28,8.551 -0.28,17.777 l 0,63.532 -19.38,0"
         style="fill:#ec008c;fill-opacity:1;fill-rule:nonzero;stroke:none"
         id="path40"
         inkscape:connector-curvature="0" /><path
         d="m 3523.2,125.313 0,137.265 40.94,0 0,-137.265 -40.94,0 z m 0,159.121 0,39.781 40.94,0 0,-39.781 -40.94,0"
         style="fill:#ec008c;fill-opacity:1;fill-rule:nonzero;stroke:none"
         id="path42"
         inkscape:connector-curvature="0" /><path
         d="m 3649.67,238.098 c -7.58,0 -13.54,-4.133 -17.92,-12.383 -4.27,-8.067 -6.41,-18.606 -6.41,-31.621 0,-13.606 2.14,-24.336 6.41,-32.203 4.38,-8.067 10.54,-12.094 18.51,-12.094 7.58,0 13.46,3.683 17.63,11.074 4.66,8.156 7,19.184 7,33.074 0,13.305 -2.09,23.801 -6.27,31.477 -4.47,8.449 -10.78,12.676 -18.95,12.676 z m 1.75,28.703 c 18.65,0 34,-6.457 46.05,-19.379 12.24,-13.113 18.36,-30.895 18.36,-53.328 0,-23.223 -6.51,-41.485 -19.53,-54.793 -11.85,-12.141 -27.19,-18.211 -46.04,-18.211 -20.01,0 -36.05,6.797 -48.09,20.398 -11.85,13.211 -17.78,30.645 -17.78,52.313 0,21.273 5.73,38.515 17.2,51.726 12.24,14.184 28.85,21.274 49.83,21.274"
         style="fill:#ec008c;fill-opacity:1;fill-rule:nonzero;stroke:none"
         id="path44"
         inkscape:connector-curvature="0" /><path
         d="m 3735.5,125.313 0,137.265 39.5,0 0,-12.68 c 8.93,11.27 20.87,16.903 35.83,16.903 17.3,0 29.88,-6.117 37.75,-18.36 4.85,-7.578 7.28,-19.425 7.28,-35.554 l 0,-87.574 -40.94,0 0,81.164 c 0,9.519 -0.93,16.222 -2.77,20.109 -2.82,6.121 -7.49,9.18 -13.99,9.18 -8.64,0 -14.91,-4.907 -18.8,-14.715 -1.94,-5.055 -2.91,-14.43 -2.91,-28.125 l 0,-67.613 -40.95,0"
         style="fill:#ec008c;fill-opacity:1;fill-rule:nonzero;stroke:none"
         id="path46"
         inkscape:connector-curvature="0" /><path
         d="m 3927.55,125.313 0,198.902 42.7,0 0,-161.891 78.09,0 0,-37.011 -120.79,0"
         style="fill:#ec008c;fill-opacity:1;fill-rule:nonzero;stroke:none"
         id="path48"
         inkscape:connector-curvature="0" /><path
         d="m 4145.98,187.824 c -9.52,-0.386 -16.95,-1.308 -22.29,-2.769 -11.85,-3.106 -17.78,-10.004 -17.78,-20.688 0,-4.762 1.31,-8.551 3.94,-11.371 2.33,-2.523 5.68,-3.785 10.05,-3.785 9.04,0 16.08,4.269 21.13,12.82 3.3,5.442 4.95,11.614 4.95,18.508 l 0,7.285 z m 50.13,-34.828 0,-25.933 c -5.15,-2.333 -10.64,-3.497 -16.47,-3.497 -11.75,0 -20.69,4.954 -26.8,14.864 -4.57,-4.762 -8.7,-8.215 -12.4,-10.348 -7.95,-4.664 -17.77,-6.992 -29.43,-6.992 -13.31,0 -23.9,3.109 -31.77,9.32 -9.52,7.481 -14.27,17.778 -14.27,30.895 0,14.375 5.39,25.742 16.17,34.097 7.97,6.215 19.53,10.149 34.69,11.805 6.6,0.68 16.66,1.211 30.15,1.602 l 0,10.929 c 0,14.282 -6.06,21.418 -18.21,21.418 -11.37,0 -17.58,-6.945 -18.65,-20.84 l -39.06,0 c 0.78,14.481 5.83,25.7 15.16,33.664 10.01,8.551 24.24,12.821 42.7,12.821 21.95,0 37.89,-5.242 47.79,-15.735 5.14,-5.343 8.31,-12.48 9.47,-21.421 0.39,-3.399 0.59,-10.25 0.59,-20.543 l 0,-45.903 c 0,-5.246 0.58,-8.5 1.74,-9.761 1.26,-1.364 2.67,-2.04 4.23,-2.04 0.97,0 2.43,0.532 4.37,1.598"
         style="fill:#ec008c;fill-opacity:1;fill-rule:nonzero;stroke:none"
         id="path50"
         inkscape:connector-curvature="0" /><path
         d="m 4275.95,235.766 c -7.58,0 -13.6,-3.887 -18.06,-11.661 -4.38,-7.578 -6.56,-17.582 -6.56,-30.011 0,-11.074 1.75,-20.352 5.25,-27.832 4.46,-9.426 11.17,-14.137 20.1,-14.137 6.7,0 12.19,3.25 16.47,9.766 5.24,8.16 7.87,18.89 7.87,32.203 0,12.82 -2.33,23.07 -6.99,30.746 -4.38,7.285 -10.4,10.926 -18.08,10.926 z m -64.11,-110.453 0,198.902 40.95,0 0,-73.149 c 9.32,10.493 20.88,15.735 34.68,15.735 10.78,0 20.69,-3.348 29.72,-10.055 16.52,-12.238 24.78,-32.641 24.78,-61.199 0,-20.203 -4.47,-37.109 -13.41,-50.707 -10.4,-15.836 -24.63,-23.75 -42.7,-23.75 -14.37,0 -25.88,5.242 -34.53,15.738 l 0,-11.515 -39.49,0"
         style="fill:#ec008c;fill-opacity:1;fill-rule:nonzero;stroke:none"
         id="path52"
         inkscape:connector-curvature="0" /><path
         d="m 4420.36,238.098 c -7.58,0 -13.55,-4.133 -17.92,-12.383 -4.28,-8.067 -6.42,-18.606 -6.42,-31.621 0,-13.606 2.14,-24.336 6.42,-32.203 4.37,-8.067 10.53,-12.094 18.5,-12.094 7.58,0 13.46,3.683 17.63,11.074 4.67,8.156 7,19.184 7,33.074 0,13.305 -2.09,23.801 -6.27,31.477 -4.47,8.449 -10.78,12.676 -18.94,12.676 z m 1.74,28.703 c 18.66,0 34.01,-6.457 46.05,-19.379 12.25,-13.113 18.36,-30.895 18.36,-53.328 0,-23.223 -6.51,-41.485 -19.52,-54.793 -11.86,-12.141 -27.2,-18.211 -46.05,-18.211 -20.01,0 -36.04,6.797 -48.08,20.398 -11.86,13.211 -17.79,30.645 -17.79,52.313 0,21.273 5.74,38.515 17.2,51.726 12.25,14.184 28.86,21.274 49.83,21.274"
         style="fill:#ec008c;fill-opacity:1;fill-rule:nonzero;stroke:none"
         id="path54"
         inkscape:connector-curvature="0" /><path
         d="m 4506.19,125.313 0,137.265 39.49,0 0,-17.484 c 9.03,14.472 20.4,21.707 34.09,21.707 3.2,0 6.51,-0.434 9.91,-1.309 l 0,-35.554 c -5.15,1.453 -9.47,2.187 -12.97,2.187 -12.05,0 -20.54,-5.93 -25.49,-17.777 -2.73,-6.321 -4.09,-16.758 -4.09,-31.328 l 0,-57.707 -40.94,0"
         style="fill:#ec008c;fill-opacity:1;fill-rule:nonzero;stroke:none"
         id="path56"
         inkscape:connector-curvature="0" /><path
         d="m 4678.57,187.824 c -9.52,-0.386 -16.95,-1.308 -22.3,-2.769 -11.84,-3.106 -17.77,-10.004 -17.77,-20.688 0,-4.762 1.31,-8.551 3.94,-11.371 2.33,-2.523 5.68,-3.785 10.05,-3.785 9.04,0 16.08,4.269 21.13,12.82 3.3,5.442 4.95,11.614 4.95,18.508 l 0,7.285 z m 50.13,-34.828 0,-25.933 c -5.15,-2.333 -10.64,-3.497 -16.47,-3.497 -11.76,0 -20.69,4.954 -26.81,14.864 -4.57,-4.762 -8.7,-8.215 -12.39,-10.348 -7.96,-4.664 -17.77,-6.992 -29.43,-6.992 -13.31,0 -23.9,3.109 -31.77,9.32 -9.52,7.481 -14.28,17.778 -14.28,30.895 0,14.375 5.39,25.742 16.18,34.097 7.96,6.215 19.53,10.149 34.68,11.805 6.6,0.68 16.66,1.211 30.16,1.602 l 0,10.929 c 0,14.282 -6.07,21.418 -18.21,21.418 -11.37,0 -17.58,-6.945 -18.66,-20.84 l -39.05,0 c 0.78,14.481 5.83,25.7 15.16,33.664 10.01,8.551 24.24,12.821 42.69,12.821 21.96,0 37.89,-5.242 47.8,-15.735 5.14,-5.343 8.31,-12.48 9.47,-21.421 0.39,-3.399 0.58,-10.25 0.58,-20.543 l 0,-45.903 c 0,-5.246 0.59,-8.5 1.75,-9.761 1.26,-1.364 2.67,-2.04 4.23,-2.04 0.97,0 2.42,0.532 4.37,1.598"
         style="fill:#ec008c;fill-opacity:1;fill-rule:nonzero;stroke:none"
         id="path58"
         inkscape:connector-curvature="0" /><path
         d="m 4731.32,236.93 0,25.648 19.39,0 0,8.887 27.54,36.723 13.4,0 0,-45.61 23.76,0 0,-25.648 -23.76,0 0,-64.985 c 0.19,-7.195 0.58,-11.855 1.17,-13.992 1.16,-4.277 4.9,-6.41 11.22,-6.41 2.91,0 6.21,0.68 9.9,2.035 l 0,-29.285 c -8.06,-1.75 -15.98,-2.621 -23.75,-2.621 -16.32,0 -27.44,4.418 -33.37,13.262 -3.2,4.754 -5.15,11.652 -5.83,20.687 -0.19,2.621 -0.28,8.551 -0.28,17.777 l 0,63.532 -19.39,0"
         style="fill:#ec008c;fill-opacity:1;fill-rule:nonzero;stroke:none"
         id="path60"
         inkscape:connector-curvature="0" /><path
         d="m 4886.95,238.098 c -7.58,0 -13.55,-4.133 -17.92,-12.383 -4.28,-8.067 -6.42,-18.606 -6.42,-31.621 0,-13.606 2.14,-24.336 6.42,-32.203 4.37,-8.067 10.54,-12.094 18.5,-12.094 7.58,0 13.46,3.683 17.63,11.074 4.67,8.156 7,19.184 7,33.074 0,13.305 -2.09,23.801 -6.27,31.477 -4.47,8.449 -10.78,12.676 -18.94,12.676 z m 1.75,28.703 c 18.65,0 34,-6.457 46.04,-19.379 12.25,-13.113 18.36,-30.895 18.36,-53.328 0,-23.223 -6.5,-41.485 -19.52,-54.793 -11.86,-12.141 -27.2,-18.211 -46.05,-18.211 -20.01,0 -36.04,6.797 -48.08,20.398 -11.86,13.211 -17.78,30.645 -17.78,52.313 0,21.273 5.73,38.515 17.19,51.726 12.25,14.184 28.86,21.274 49.84,21.274"
         style="fill:#ec008c;fill-opacity:1;fill-rule:nonzero;stroke:none"
         id="path62"
         inkscape:connector-curvature="0" /><path
         d="m 4972.77,125.313 0,137.265 39.49,0 0,-17.484 c 9.03,14.472 20.4,21.707 34.09,21.707 3.21,0 6.52,-0.434 9.91,-1.309 l 0,-35.554 c -5.15,1.453 -9.47,2.187 -12.96,2.187 -12.05,0 -20.55,-5.93 -25.5,-17.777 -2.73,-6.321 -4.08,-16.758 -4.08,-31.328 l 0,-57.707 -40.95,0"
         style="fill:#ec008c;fill-opacity:1;fill-rule:nonzero;stroke:none"
         id="path64"
         inkscape:connector-curvature="0" /><path
         d="m 5069.82,125.313 0,137.265 40.94,0 0,-137.265 -40.94,0 z m 0,159.121 0,39.781 40.94,0 0,-39.781 -40.94,0"
         style="fill:#ec008c;fill-opacity:1;fill-rule:nonzero;stroke:none"
         id="path66"
         inkscape:connector-curvature="0" /><path
         d="m 5217,208.516 c -0.49,6.312 -1.6,11.66 -3.35,16.031 -1.85,4.754 -4.72,8.598 -8.61,11.508 -2.91,2.234 -6.26,3.355 -10.04,3.355 -8.46,0 -14.72,-4.613 -18.8,-13.844 -2.14,-4.664 -3.5,-10.347 -4.09,-17.05 l 44.89,0 z m 40.94,-24.477 -86.12,0 c 1.17,-23.707 9.18,-35.559 24.04,-35.559 10.01,0 17.1,6.512 21.28,19.528 l 38.76,0 c -1.84,-8.067 -5.29,-15.645 -10.34,-22.735 -11.37,-16.121 -27.74,-24.183 -49.11,-24.183 -19.62,0 -35.21,6.265 -46.78,18.793 -12.43,13.406 -18.65,31.187 -18.65,53.336 0,20.59 5.64,37.738 16.9,51.433 12.15,14.766 27.84,22.149 47.08,22.149 15.44,0 28.56,-4.906 39.34,-14.715 11.37,-10.492 18.59,-25.5 21.71,-45.023 0.97,-6.321 1.6,-13.993 1.89,-23.024"
         style="fill:#ec008c;fill-opacity:1;fill-rule:nonzero;stroke:none"
         id="path68"
         inkscape:connector-curvature="0" /><path
         d="m 5273.38,166.695 37.89,0 c 1.65,-12.726 8.35,-19.086 20.11,-19.086 5.15,0 9.18,1.258 12.09,3.789 3.02,2.622 4.52,6.118 4.52,10.493 0,6.117 -3.35,11.019 -10.06,14.714 -2.91,1.653 -8.88,4.032 -17.92,7.141 -15.25,5.242 -25.4,9.762 -30.45,13.551 -9.91,7.383 -14.87,16.902 -14.87,28.558 0,13.016 4.87,23.219 14.58,30.602 8.94,6.898 21.13,10.344 36.57,10.344 20.6,0 35.94,-6.36 46.05,-19.086 4.56,-5.828 7.58,-12.82 9.03,-20.985 l -38.02,0 c -2.53,8.743 -7.78,13.114 -15.75,13.114 -8.64,0 -12.97,-4.028 -12.97,-12.094 0,-5.441 3.11,-9.809 9.33,-13.109 2.73,-1.364 10.06,-3.985 22,-7.871 11.47,-3.692 20.26,-7.868 26.38,-12.532 9.72,-7.289 14.57,-17.246 14.57,-29.871 0,-13.117 -4.95,-23.66 -14.86,-31.621 -9.62,-7.769 -22.64,-11.656 -39.06,-11.656 -15.92,0 -28.37,3.055 -37.3,9.18 -12.63,8.543 -19.91,20.687 -21.86,36.425"
         style="fill:#ec008c;fill-opacity:1;fill-rule:nonzero;stroke:none"
         id="path70"
         inkscape:connector-curvature="0" /><path
         d="m 0,166.121 99.6719,0 0,99.6836 -99.6719,0 0,-99.6836 z"
         style="fill:#ec008c;fill-opacity:1;fill-rule:nonzero;stroke:none"
         id="path72"
         inkscape:connector-curvature="0" /><path
         d="m 303.941,166.121 99.6758,0 0,99.6836 -99.6758,0 0,-99.6836 z"
         style="fill:#ec008c;fill-opacity:1;fill-rule:nonzero;stroke:none"
         id="path74"
         inkscape:connector-curvature="0" /><path
         d="m 602.965,166.121 99.668,0 0,99.6836 -99.668,0 0,-99.6836 z"
         style="fill:#ec008c;fill-opacity:1;fill-rule:nonzero;stroke:none"
         id="path76"
         inkscape:connector-curvature="0" /><path
         d="m 901.977,166.121 99.6836,0 0,99.6836 -99.6836,0 0,-99.6836 z"
         style="fill:#ec008c;fill-opacity:1;fill-rule:nonzero;stroke:none"
         id="path78"
         inkscape:connector-curvature="0" /><path
         d="m 398.684,492.227 -393.76212,0 L 0,318.547 l 26.1133,-4.52 c 4.8711,51.18 18.2969,89.153 40.2969,113.938 23.1562,25.926 55.0348,39.48 96.0158,40.644 l 0,-363.355 c 0,-31.7188 -4.43,-52.3243 -13.696,-61.8243 C 140.863,35.3242 127.539,30.332 108.789,28.4961 103.227,28.0273 93.7383,27.793 80.3086,27.793 l 0,-27.793 242.9964,0 0,27.793 c -13.426,0 -22.918,0.2343 -28.481,0.7031 -18.754,1.8359 -32.082,6.8281 -39.941,14.9336 -9.27,9.5 -13.754,30.1055 -13.754,61.8243 l 0,363.355 c 41,-1.164 72.918,-14.718 96.074,-40.644 21.996,-24.785 35.434,-62.758 40.297,-113.938 l 26.117,4.52 -4.933,173.68"
         style="fill:#ec008c;fill-opacity:1;fill-rule:nonzero;stroke:none"
         id="path80"
         inkscape:connector-curvature="0" /></g></g></svg>